<svg width="990" height="126" viewBox="0 0 990 126" fill="none" xmlns="http://www.w3.org/2000/svg">
<g clip-path="url(#clip0_1862_2791)">
<path d="M134.396 125.384C127.413 113.372 118.676 99.2765 127.87 83.4615L167.177 15.85C176.372 0.0350809 192.866 0.501446 206.999 0.501447L134.396 125.384Z" fill="#4268FF"/>
<path d="M73.1873 124.38L72.603 125.384L72.5838 125.351L72.5643 125.384L71.98 124.38C71.0422 122.771 70.0834 121.125 69.1493 119.443L0 0.501458L1.18116 0.500727C15.0421 0.488112 30.8824 0.473693 39.8214 15.85L72.5838 72.2034L105.346 15.85C114.285 0.473693 130.125 0.488112 143.986 0.500727L145.167 0.501458L76.018 119.443C75.0838 121.125 74.1251 122.771 73.1873 124.38Z" fill="#4268FF"/>
<path d="M201.71 112.208C201.71 119.549 195.718 125.5 188.326 125.5C180.934 125.5 174.941 119.549 174.941 112.208C174.941 104.867 180.934 98.9161 188.326 98.9161C195.718 98.9161 201.71 104.867 201.71 112.208Z" fill="#4268FF"/>
<path d="M289.152 96.74L269 35.14H283.784L301.296 89.7H293.904L312.208 35.14H325.408L343.008 89.7H335.88L353.832 35.14H367.472L347.32 96.74H332.008L316.432 48.868H320.48L304.464 96.74H289.152ZM401.739 96.74V87.5L400.859 85.476V68.932C400.859 65.9987 399.95 63.7107 398.131 62.068C396.371 60.4253 393.643 59.604 389.947 59.604C387.424 59.604 384.931 60.0147 382.467 60.836C380.062 61.5987 378.008 62.6547 376.307 64.004L371.379 54.412C373.96 52.5933 377.07 51.1853 380.707 50.188C384.344 49.1907 388.04 48.692 391.795 48.692C399.011 48.692 404.614 50.3933 408.603 53.796C412.592 57.1987 414.587 62.508 414.587 69.724V96.74H401.739ZM387.307 97.444C383.611 97.444 380.443 96.828 377.803 95.596C375.163 94.305 373.139 92.575 371.731 90.404C370.323 88.233 369.619 85.799 369.619 83.1C369.619 80.284 370.294 77.82 371.643 75.708C373.051 73.596 375.251 71.953 378.243 70.78C381.235 69.548 385.136 68.932 389.947 68.932H402.531V76.94H391.443C388.216 76.94 385.987 77.468 384.755 78.524C383.582 79.58 382.995 80.9 382.995 82.484C382.995 84.244 383.67 85.652 385.019 86.708C386.427 87.705 388.334 88.204 390.739 88.204C393.027 88.204 395.08 87.676 396.899 86.62C398.718 85.505 400.038 83.892 400.859 81.78L402.971 88.116C401.974 91.167 400.155 93.484 397.515 95.068C394.875 96.652 391.472 97.444 387.307 97.444ZM428.772 96.74V49.396H441.884V62.772L440.036 58.9C441.444 55.556 443.702 53.0333 446.812 51.332C449.921 49.572 453.705 48.692 458.164 48.692V61.364C457.577 61.3053 457.049 61.276 456.58 61.276C456.11 61.2173 455.612 61.188 455.084 61.188C451.329 61.188 448.278 62.2733 445.932 64.444C443.644 66.556 442.5 69.8707 442.5 74.388V96.74H428.772ZM488.07 97.444C483.612 97.444 479.593 96.447 476.014 94.452C472.436 92.399 469.59 89.553 467.478 85.916C465.425 82.279 464.398 77.996 464.398 73.068C464.398 68.0813 465.425 63.7693 467.478 60.132C469.59 56.4947 472.436 53.6787 476.014 51.684C479.593 49.6893 483.612 48.692 488.07 48.692C492.06 48.692 495.551 49.572 498.543 51.332C501.535 53.092 503.852 55.7613 505.495 59.34C507.137 62.9187 507.959 67.4947 507.959 73.068C507.959 78.583 507.167 83.159 505.583 86.796C503.999 90.375 501.711 93.044 498.719 94.804C495.785 96.564 492.236 97.444 488.07 97.444ZM490.446 86.18C492.676 86.18 494.7 85.652 496.519 84.596C498.337 83.54 499.774 82.044 500.83 80.108C501.945 78.113 502.502 75.767 502.502 73.068C502.502 70.3107 501.945 67.964 500.83 66.028C499.774 64.092 498.337 62.596 496.519 61.54C494.7 60.484 492.676 59.956 490.446 59.956C488.158 59.956 486.105 60.484 484.287 61.54C482.468 62.596 481.001 64.092 479.886 66.028C478.83 67.964 478.302 70.3107 478.302 73.068C478.302 75.767 478.83 78.113 479.886 80.108C481.001 82.044 482.468 83.54 484.287 84.596C486.105 85.652 488.158 86.18 490.446 86.18ZM502.855 96.74V87.06L503.119 72.98L502.239 58.988V31.444H515.966V96.74H502.855ZM549.986 96.74L577.442 35.14H591.522L619.066 96.74H604.106L581.578 42.356H587.21L564.594 96.74H549.986ZM563.714 83.54L567.498 72.716H599.178L603.05 83.54H563.714ZM655.025 48.692C658.78 48.692 662.124 49.4547 665.057 50.98C668.049 52.4467 670.396 54.7347 672.097 57.844C673.798 60.8947 674.649 64.8253 674.649 69.636V96.74H660.921V71.748C660.921 67.9347 660.07 65.1187 658.369 63.3C656.726 61.4813 654.38 60.572 651.329 60.572C649.158 60.572 647.193 61.0413 645.433 61.98C643.732 62.86 642.382 64.2387 641.385 66.116C640.446 67.9933 639.977 70.3987 639.977 73.332V96.74H626.249V49.396H639.361V62.508L636.897 58.548C638.598 55.38 641.033 52.9453 644.201 51.244C647.369 49.5427 650.977 48.692 655.025 48.692ZM717.893 96.74V87.5L717.013 85.476V68.932C717.013 65.9987 716.103 63.7107 714.285 62.068C712.525 60.4253 709.797 59.604 706.101 59.604C703.578 59.604 701.085 60.0147 698.621 60.836C696.215 61.5987 694.162 62.6547 692.461 64.004L687.533 54.412C690.114 52.5933 693.223 51.1853 696.861 50.188C700.498 49.1907 704.194 48.692 707.949 48.692C715.165 48.692 720.767 50.3933 724.757 53.796C728.746 57.1987 730.741 62.508 730.741 69.724V96.74H717.893ZM703.461 97.444C699.765 97.444 696.597 96.828 693.957 95.596C691.317 94.305 689.293 92.575 687.885 90.404C686.477 88.233 685.773 85.799 685.773 83.1C685.773 80.284 686.447 77.82 687.797 75.708C689.205 73.596 691.405 71.953 694.397 70.78C697.389 69.548 701.29 68.932 706.101 68.932H718.685V76.94H707.597C704.37 76.94 702.141 77.468 700.909 78.524C699.735 79.58 699.149 80.9 699.149 82.484C699.149 84.244 699.823 85.652 701.173 86.708C702.581 87.705 704.487 88.204 706.893 88.204C709.181 88.204 711.234 87.676 713.053 86.62C714.871 85.505 716.191 83.892 717.013 81.78L719.125 88.116C718.127 91.167 716.309 93.484 713.669 95.068C711.029 96.652 707.626 97.444 703.461 97.444ZM744.925 96.74V31.444H758.653V96.74H744.925ZM779.138 114.516C776.674 114.516 774.239 114.135 771.834 113.372C769.429 112.609 767.463 111.553 765.938 110.204L770.954 100.436C772.01 101.375 773.213 102.108 774.562 102.636C775.97 103.164 777.349 103.428 778.698 103.428C780.634 103.428 782.159 102.959 783.274 102.02C784.447 101.14 785.503 99.644 786.442 97.532L788.906 91.724L789.962 90.228L806.946 49.396H820.146L798.762 99.644C797.237 103.457 795.477 106.449 793.482 108.62C791.546 110.791 789.375 112.316 786.97 113.196C784.623 114.076 782.013 114.516 779.138 114.516ZM787.234 98.588L766.114 49.396H780.282L796.65 88.996L787.234 98.588ZM848.157 97.444C842.584 97.444 838.242 96.036 835.133 93.22C832.024 90.345 830.469 86.092 830.469 80.46V38.924H844.197V80.284C844.197 82.279 844.725 83.833 845.781 84.948C846.837 86.004 848.274 86.532 850.093 86.532C852.264 86.532 854.112 85.945 855.637 84.772L859.333 94.452C857.925 95.449 856.224 96.212 854.229 96.74C852.293 97.209 850.269 97.444 848.157 97.444ZM823.165 61.012V50.452H855.989V61.012H823.165ZM868.799 96.74V49.396H882.527V96.74H868.799ZM875.663 42.796C873.14 42.796 871.087 42.0627 869.503 40.596C867.919 39.1293 867.127 37.3107 867.127 35.14C867.127 32.9693 867.919 31.1507 869.503 29.684C871.087 28.2173 873.14 27.484 875.663 27.484C878.186 27.484 880.239 28.188 881.823 29.596C883.407 30.9453 884.199 32.7053 884.199 34.876C884.199 37.164 883.407 39.0707 881.823 40.596C880.298 42.0627 878.244 42.796 875.663 42.796ZM919.908 97.444C914.804 97.444 910.257 96.417 906.268 94.364C902.278 92.252 899.14 89.348 896.852 85.652C894.622 81.956 893.508 77.761 893.508 73.068C893.508 68.316 894.622 64.1213 896.852 60.484C899.14 56.788 902.278 53.9133 906.268 51.86C910.257 49.748 914.804 48.692 919.908 48.692C924.894 48.692 929.236 49.748 932.932 51.86C936.628 53.9133 939.356 56.876 941.116 60.748L930.468 66.468C929.236 64.2387 927.681 62.596 925.804 61.54C923.985 60.484 921.99 59.956 919.82 59.956C917.473 59.956 915.361 60.484 913.484 61.54C911.606 62.596 910.11 64.092 908.996 66.028C907.94 67.964 907.412 70.3107 907.412 73.068C907.412 75.825 907.94 78.172 908.996 80.108C910.11 82.044 911.606 83.54 913.484 84.596C915.361 85.652 917.473 86.18 919.82 86.18C921.99 86.18 923.985 85.681 925.804 84.684C927.681 83.628 929.236 81.956 930.468 79.668L941.116 85.476C939.356 89.289 936.628 92.252 932.932 94.364C929.236 96.417 924.894 97.444 919.908 97.444ZM966.708 97.444C962.66 97.444 958.759 96.975 955.004 96.036C951.308 95.039 948.375 93.807 946.204 92.34L950.78 82.484C952.951 83.833 955.503 84.948 958.436 85.828C961.428 86.649 964.361 87.06 967.236 87.06C970.404 87.06 972.633 86.679 973.924 85.916C975.273 85.153 975.948 84.097 975.948 82.748C975.948 81.633 975.42 80.812 974.364 80.284C973.367 79.697 972.017 79.257 970.316 78.964C968.615 78.671 966.737 78.377 964.684 78.084C962.689 77.791 960.665 77.409 958.612 76.94C956.559 76.412 954.681 75.649 952.98 74.652C951.279 73.655 949.9 72.305 948.844 70.604C947.847 68.9027 947.348 66.7027 947.348 64.004C947.348 61.012 948.199 58.372 949.9 56.084C951.66 53.796 954.183 52.0067 957.468 50.716C960.753 49.3667 964.684 48.692 969.26 48.692C972.487 48.692 975.772 49.044 979.116 49.748C982.46 50.452 985.247 51.4787 987.476 52.828L982.9 62.596C980.612 61.2467 978.295 60.3373 975.948 59.868C973.66 59.34 971.431 59.076 969.26 59.076C966.209 59.076 963.98 59.4867 962.572 60.308C961.164 61.1293 960.46 62.1853 960.46 63.476C960.46 64.6493 960.959 65.5293 961.956 66.116C963.012 66.7027 964.391 67.172 966.092 67.524C967.793 67.876 969.641 68.1987 971.636 68.492C973.689 68.7267 975.743 69.108 977.796 69.636C979.849 70.164 981.697 70.9267 983.34 71.924C985.041 72.863 986.42 74.183 987.476 75.884C988.532 77.527 989.06 79.697 989.06 82.396C989.06 85.329 988.18 87.94 986.42 90.228C984.66 92.457 982.108 94.217 978.764 95.508C975.479 96.799 971.46 97.444 966.708 97.444Z" fill="#4268FF"/>
<path d="M81.5563 23.2932C83.6404 20.3148 83.641 16.5742 81.5579 13.5954L72.4265 0.537667C72.4216 0.530631 72.4099 0.530621 72.405 0.537648C72.4 0.544668 72.3883 0.544666 72.3834 0.537644L72.3756 0.526532C72.3671 0.514419 72.3469 0.514433 72.3384 0.526559L63.2137 13.5745C61.1313 16.5524 61.1319 20.2917 63.2153 23.269L72.2148 36.1298C72.2695 36.2173 72.324 36.3052 72.3786 36.3935C72.3808 36.3971 72.3866 36.3972 72.389 36.3937C72.3914 36.3904 72.3971 36.3906 72.3995 36.3939C72.402 36.3974 72.4078 36.3973 72.4102 36.3938L72.7947 35.8143L81.5563 23.2932Z" fill="#4268FF"/>
</g>
<defs>
<clipPath id="clip0_1862_2791">
<rect width="989.059" height="125" fill="white" transform="translate(0 0.5)"/>
</clipPath>
</defs>
</svg>
