<svg width="346" height="210" viewBox="0 0 346 210" fill="none" xmlns="http://www.w3.org/2000/svg">
<path d="M136.829 43.8066C140.312 38.0824 140.313 30.8933 136.831 25.1682L121.567 0.072413C121.559 0.0588906 121.539 0.0588721 121.531 0.0723771C121.523 0.0858689 121.503 0.0858648 121.495 0.0723696L121.482 0.0510137C121.468 0.0277332 121.434 0.0277598 121.42 0.0510642L106.167 25.1281C102.686 30.8513 102.687 38.038 106.17 43.7602L121.213 68.4776C121.305 68.6459 121.396 68.8149 121.487 68.9844C121.491 68.9913 121.5 68.9916 121.505 68.9849C121.508 68.9784 121.518 68.9788 121.522 68.9852C121.526 68.9919 121.536 68.9918 121.54 68.9849L122.183 67.8712L136.829 43.8066Z" fill="#4268FF"/>
<path d="M224.495 209.805C212.856 189.624 198.295 165.944 213.619 139.375L279.131 25.788C294.455 -0.781048 321.945 0.00244795 345.5 0.00244811L224.495 209.805Z" fill="#4268FF"/>
<path d="M122.479 208.118L121.505 209.805L121.473 209.749L121.441 209.805L120.467 208.118C118.904 205.415 117.306 202.649 115.749 199.824L0.5 0.00244946L2.4686 0.00122089C25.5702 -0.0199719 51.9707 -0.0441971 66.869 25.788L121.473 120.462L176.076 25.788C190.975 -0.0441971 217.375 -0.0199719 240.477 0.00122089L242.445 0.00244946L127.197 199.824C125.64 202.649 124.042 205.415 122.479 208.118Z" fill="#4268FF"/>
<path d="M336.684 187.67C336.684 200.002 326.696 210 314.376 210C302.056 210 292.068 200.002 292.068 187.67C292.068 175.337 302.056 165.339 314.376 165.339C326.696 165.339 336.684 175.337 336.684 187.67Z" fill="#4268FF"/>
</svg>
