<svg width="990" height="125" viewBox="0 0 990 125" fill="none" xmlns="http://www.w3.org/2000/svg">
<g clip-path="url(#clip0_1862_2801)">
<path d="M134.396 124.884C127.413 112.872 118.676 98.7765 127.87 82.9615L167.177 15.35C176.372 -0.464919 192.866 0.00144646 206.999 0.00144656L134.396 124.884Z" fill="white"/>
<path d="M73.1873 123.88L72.603 124.884L72.5838 124.851L72.5643 124.884L71.98 123.88C71.0422 122.271 70.0834 120.625 69.1493 118.943L0 0.00145801L1.18116 0.000726719C15.0421 -0.0118881 30.8824 -0.0263071 39.8214 15.35L72.5838 71.7034L105.346 15.35C114.285 -0.0263071 130.125 -0.0118881 143.986 0.000726719L145.167 0.00145801L76.018 118.943C75.0838 120.625 74.1251 122.271 73.1873 123.88Z" fill="white"/>
<path d="M201.71 111.708C201.71 119.049 195.718 125 188.326 125C180.934 125 174.941 119.049 174.941 111.708C174.941 104.367 180.934 98.4161 188.326 98.4161C195.718 98.4161 201.71 104.367 201.71 111.708Z" fill="white"/>
<path d="M289.152 96.24L269 34.64H283.784L301.296 89.2H293.904L312.208 34.64H325.408L343.008 89.2H335.88L353.832 34.64H367.472L347.32 96.24H332.008L316.432 48.368H320.48L304.464 96.24H289.152ZM401.739 96.24V87L400.859 84.976V68.432C400.859 65.4987 399.95 63.2107 398.131 61.568C396.371 59.9253 393.643 59.104 389.947 59.104C387.424 59.104 384.931 59.5147 382.467 60.336C380.062 61.0987 378.008 62.1547 376.307 63.504L371.379 53.912C373.96 52.0933 377.07 50.6853 380.707 49.688C384.344 48.6907 388.04 48.192 391.795 48.192C399.011 48.192 404.614 49.8933 408.603 53.296C412.592 56.6987 414.587 62.008 414.587 69.224V96.24H401.739ZM387.307 96.944C383.611 96.944 380.443 96.328 377.803 95.096C375.163 93.805 373.139 92.075 371.731 89.904C370.323 87.733 369.619 85.299 369.619 82.6C369.619 79.784 370.294 77.32 371.643 75.208C373.051 73.096 375.251 71.453 378.243 70.28C381.235 69.048 385.136 68.432 389.947 68.432H402.531V76.44H391.443C388.216 76.44 385.987 76.968 384.755 78.024C383.582 79.08 382.995 80.4 382.995 81.984C382.995 83.744 383.67 85.152 385.019 86.208C386.427 87.205 388.334 87.704 390.739 87.704C393.027 87.704 395.08 87.176 396.899 86.12C398.718 85.005 400.038 83.392 400.859 81.28L402.971 87.616C401.974 90.667 400.155 92.984 397.515 94.568C394.875 96.152 391.472 96.944 387.307 96.944ZM428.772 96.24V48.896H441.884V62.272L440.036 58.4C441.444 55.056 443.702 52.5333 446.812 50.832C449.921 49.072 453.705 48.192 458.164 48.192V60.864C457.577 60.8053 457.049 60.776 456.58 60.776C456.11 60.7173 455.612 60.688 455.084 60.688C451.329 60.688 448.278 61.7733 445.932 63.944C443.644 66.056 442.5 69.3707 442.5 73.888V96.24H428.772ZM488.07 96.944C483.612 96.944 479.593 95.947 476.014 93.952C472.436 91.899 469.59 89.053 467.478 85.416C465.425 81.779 464.398 77.496 464.398 72.568C464.398 67.5813 465.425 63.2693 467.478 59.632C469.59 55.9947 472.436 53.1787 476.014 51.184C479.593 49.1893 483.612 48.192 488.07 48.192C492.06 48.192 495.551 49.072 498.543 50.832C501.535 52.592 503.852 55.2613 505.495 58.84C507.137 62.4187 507.959 66.9947 507.959 72.568C507.959 78.083 507.167 82.659 505.583 86.296C503.999 89.875 501.711 92.544 498.719 94.304C495.785 96.064 492.236 96.944 488.07 96.944ZM490.446 85.68C492.676 85.68 494.7 85.152 496.519 84.096C498.337 83.04 499.774 81.544 500.83 79.608C501.945 77.613 502.502 75.267 502.502 72.568C502.502 69.8107 501.945 67.464 500.83 65.528C499.774 63.592 498.337 62.096 496.519 61.04C494.7 59.984 492.676 59.456 490.446 59.456C488.158 59.456 486.105 59.984 484.287 61.04C482.468 62.096 481.001 63.592 479.886 65.528C478.83 67.464 478.302 69.8107 478.302 72.568C478.302 75.267 478.83 77.613 479.886 79.608C481.001 81.544 482.468 83.04 484.287 84.096C486.105 85.152 488.158 85.68 490.446 85.68ZM502.855 96.24V86.56L503.119 72.48L502.239 58.488V30.944H515.966V96.24H502.855ZM549.986 96.24L577.442 34.64H591.522L619.066 96.24H604.106L581.578 41.856H587.21L564.594 96.24H549.986ZM563.714 83.04L567.498 72.216H599.178L603.05 83.04H563.714ZM655.025 48.192C658.78 48.192 662.124 48.9547 665.057 50.48C668.049 51.9467 670.396 54.2347 672.097 57.344C673.798 60.3947 674.649 64.3253 674.649 69.136V96.24H660.921V71.248C660.921 67.4347 660.07 64.6187 658.369 62.8C656.726 60.9813 654.38 60.072 651.329 60.072C649.158 60.072 647.193 60.5413 645.433 61.48C643.732 62.36 642.382 63.7387 641.385 65.616C640.446 67.4933 639.977 69.8987 639.977 72.832V96.24H626.249V48.896H639.361V62.008L636.897 58.048C638.598 54.88 641.033 52.4453 644.201 50.744C647.369 49.0427 650.977 48.192 655.025 48.192ZM717.893 96.24V87L717.013 84.976V68.432C717.013 65.4987 716.103 63.2107 714.285 61.568C712.525 59.9253 709.797 59.104 706.101 59.104C703.578 59.104 701.085 59.5147 698.621 60.336C696.215 61.0987 694.162 62.1547 692.461 63.504L687.533 53.912C690.114 52.0933 693.223 50.6853 696.861 49.688C700.498 48.6907 704.194 48.192 707.949 48.192C715.165 48.192 720.767 49.8933 724.757 53.296C728.746 56.6987 730.741 62.008 730.741 69.224V96.24H717.893ZM703.461 96.944C699.765 96.944 696.597 96.328 693.957 95.096C691.317 93.805 689.293 92.075 687.885 89.904C686.477 87.733 685.773 85.299 685.773 82.6C685.773 79.784 686.447 77.32 687.797 75.208C689.205 73.096 691.405 71.453 694.397 70.28C697.389 69.048 701.29 68.432 706.101 68.432H718.685V76.44H707.597C704.37 76.44 702.141 76.968 700.909 78.024C699.735 79.08 699.149 80.4 699.149 81.984C699.149 83.744 699.823 85.152 701.173 86.208C702.581 87.205 704.487 87.704 706.893 87.704C709.181 87.704 711.234 87.176 713.053 86.12C714.871 85.005 716.191 83.392 717.013 81.28L719.125 87.616C718.127 90.667 716.309 92.984 713.669 94.568C711.029 96.152 707.626 96.944 703.461 96.944ZM744.925 96.24V30.944H758.653V96.24H744.925ZM779.138 114.016C776.674 114.016 774.239 113.635 771.834 112.872C769.429 112.109 767.463 111.053 765.938 109.704L770.954 99.936C772.01 100.875 773.213 101.608 774.562 102.136C775.97 102.664 777.349 102.928 778.698 102.928C780.634 102.928 782.159 102.459 783.274 101.52C784.447 100.64 785.503 99.144 786.442 97.032L788.906 91.224L789.962 89.728L806.946 48.896H820.146L798.762 99.144C797.237 102.957 795.477 105.949 793.482 108.12C791.546 110.291 789.375 111.816 786.97 112.696C784.623 113.576 782.013 114.016 779.138 114.016ZM787.234 98.088L766.114 48.896H780.282L796.65 88.496L787.234 98.088ZM848.157 96.944C842.584 96.944 838.242 95.536 835.133 92.72C832.024 89.845 830.469 85.592 830.469 79.96V38.424H844.197V79.784C844.197 81.779 844.725 83.333 845.781 84.448C846.837 85.504 848.274 86.032 850.093 86.032C852.264 86.032 854.112 85.445 855.637 84.272L859.333 93.952C857.925 94.949 856.224 95.712 854.229 96.24C852.293 96.709 850.269 96.944 848.157 96.944ZM823.165 60.512V49.952H855.989V60.512H823.165ZM868.799 96.24V48.896H882.527V96.24H868.799ZM875.663 42.296C873.14 42.296 871.087 41.5627 869.503 40.096C867.919 38.6293 867.127 36.8107 867.127 34.64C867.127 32.4693 867.919 30.6507 869.503 29.184C871.087 27.7173 873.14 26.984 875.663 26.984C878.186 26.984 880.239 27.688 881.823 29.096C883.407 30.4453 884.199 32.2053 884.199 34.376C884.199 36.664 883.407 38.5707 881.823 40.096C880.298 41.5627 878.244 42.296 875.663 42.296ZM919.908 96.944C914.804 96.944 910.257 95.917 906.268 93.864C902.278 91.752 899.14 88.848 896.852 85.152C894.622 81.456 893.508 77.261 893.508 72.568C893.508 67.816 894.622 63.6213 896.852 59.984C899.14 56.288 902.278 53.4133 906.268 51.36C910.257 49.248 914.804 48.192 919.908 48.192C924.894 48.192 929.236 49.248 932.932 51.36C936.628 53.4133 939.356 56.376 941.116 60.248L930.468 65.968C929.236 63.7387 927.681 62.096 925.804 61.04C923.985 59.984 921.99 59.456 919.82 59.456C917.473 59.456 915.361 59.984 913.484 61.04C911.606 62.096 910.11 63.592 908.996 65.528C907.94 67.464 907.412 69.8107 907.412 72.568C907.412 75.325 907.94 77.672 908.996 79.608C910.11 81.544 911.606 83.04 913.484 84.096C915.361 85.152 917.473 85.68 919.82 85.68C921.99 85.68 923.985 85.181 925.804 84.184C927.681 83.128 929.236 81.456 930.468 79.168L941.116 84.976C939.356 88.789 936.628 91.752 932.932 93.864C929.236 95.917 924.894 96.944 919.908 96.944ZM966.708 96.944C962.66 96.944 958.759 96.475 955.004 95.536C951.308 94.539 948.375 93.307 946.204 91.84L950.78 81.984C952.951 83.333 955.503 84.448 958.436 85.328C961.428 86.149 964.361 86.56 967.236 86.56C970.404 86.56 972.633 86.179 973.924 85.416C975.273 84.653 975.948 83.597 975.948 82.248C975.948 81.133 975.42 80.312 974.364 79.784C973.367 79.197 972.017 78.757 970.316 78.464C968.615 78.171 966.737 77.877 964.684 77.584C962.689 77.291 960.665 76.909 958.612 76.44C956.559 75.912 954.681 75.149 952.98 74.152C951.279 73.155 949.9 71.805 948.844 70.104C947.847 68.4027 947.348 66.2027 947.348 63.504C947.348 60.512 948.199 57.872 949.9 55.584C951.66 53.296 954.183 51.5067 957.468 50.216C960.753 48.8667 964.684 48.192 969.26 48.192C972.487 48.192 975.772 48.544 979.116 49.248C982.46 49.952 985.247 50.9787 987.476 52.328L982.9 62.096C980.612 60.7467 978.295 59.8373 975.948 59.368C973.66 58.84 971.431 58.576 969.26 58.576C966.209 58.576 963.98 58.9867 962.572 59.808C961.164 60.6293 960.46 61.6853 960.46 62.976C960.46 64.1493 960.959 65.0293 961.956 65.616C963.012 66.2027 964.391 66.672 966.092 67.024C967.793 67.376 969.641 67.6987 971.636 67.992C973.689 68.2267 975.743 68.608 977.796 69.136C979.849 69.664 981.697 70.4267 983.34 71.424C985.041 72.363 986.42 73.683 987.476 75.384C988.532 77.027 989.06 79.197 989.06 81.896C989.06 84.829 988.18 87.44 986.42 89.728C984.66 91.957 982.108 93.717 978.764 95.008C975.479 96.299 971.46 96.944 966.708 96.944Z" fill="white"/>
<path d="M81.5563 22.7932C83.6404 19.8148 83.641 16.0742 81.5579 13.0954L72.4265 0.0376667C72.4216 0.030631 72.4099 0.0306213 72.405 0.0376481C72.4 0.044668 72.3883 0.0446659 72.3834 0.0376443L72.3756 0.0265325C72.3671 0.0144193 72.3469 0.0144332 72.3384 0.0265588L63.2137 13.0745C61.1313 16.0524 61.1319 19.7917 63.2153 22.769L72.2148 35.6298C72.2695 35.7173 72.324 35.8052 72.3786 35.8935C72.3808 35.8971 72.3866 35.8972 72.389 35.8937C72.3914 35.8904 72.3971 35.8906 72.3995 35.8939C72.402 35.8974 72.4078 35.8973 72.4102 35.8938L72.7947 35.3143L81.5563 22.7932Z" fill="white"/>
</g>
<defs>
<clipPath id="clip0_1862_2801">
<rect width="989.059" height="125" fill="white"/>
</clipPath>
</defs>
</svg>
